Coordinates
version=1
nRows=19
nColumns=24
inDegrees=yes

Units are S.I. units (second, meters, Newtons, ...)
Angles are in degrees.

endheader
time	pelvis_tilt	pelvis_list	pelvis_rotation	pelvis_tx	pelvis_ty	pelvis_tz	hip_flexion_r	hip_adduction_r	hip_rotation_r	knee_angle_r	ankle_angle_r	subtalar_angle_r	mtp_angle_r	hip_flexion_l	hip_adduction_l	hip_rotation_l	knee_angle_l	ankle_angle_l	subtalar_angle_l	mtp_angle_l	lumbar_extension	lumbar_bending	lumbar_rotation
      3.84500000	     -9.04755804	     -9.82444263	      6.50644827	     -2.66751785	     -0.03158716	      0.51294080	     25.52546774	      9.44632945	     -7.23990046	    -22.55569218	     -2.41901581	     -4.70759591	      5.46533138	     16.37978142	    -11.48076920	      6.18080829	    -61.47006986	    -28.65327647	     -6.04527507	     25.28408317	      6.94358136	     10.02403791	     -6.25168316
      3.85000000	     -8.87235326	     -9.78770443	      6.60239368	     -2.66125545	     -0.03079264	      0.51365318	     24.81225279	      9.59906184	     -7.04263307	    -22.40372864	     -2.16779537	     -5.03506726	      5.34327644	     17.18056797	    -11.26897630	      6.40138104	    -62.44971045	    -28.14969618	     -7.45380106	     24.61736615	      6.71947474	      9.93243188	     -6.06701687
      3.85500000	     -8.71206411	     -9.73164302	      6.69870827	     -2.65496184	     -0.02992188	      0.51433582	     24.08434657	      9.72338461	     -6.86942635	    -22.20867993	     -1.90484343	     -5.27389402	      5.17610642	     17.97101058	    -11.02440995	      6.63092437	    -63.30673738	    -27.56502587	     -8.61963156	     24.09713812	      6.52616338	      9.81813509	     -5.84901575
      3.86000000	     -8.57088321	     -9.60572239	      6.75604763	     -2.64873588	     -0.02897893	      0.51502237	     23.35996096	      9.78113705	     -6.63725814	    -22.00722757	     -1.62644003	     -5.42146766	      5.01809031	     18.74484261	    -10.69882310	      6.81022560	    -64.05290407	    -26.93455222	     -9.58889015	     23.58953197	      6.33284193	      9.63632880	     -5.58485766
      3.86500000	     -8.45575939	     -9.43196660	      6.79472041	     -2.64255998	     -0.02797904	      0.51569813	     22.64259562	      9.78515815	     -6.38995929	    -21.77914601	     -1.36220411	     -5.53064846	      4.86379917	     19.51511143	    -10.31360812	      6.96587243	    -64.67923752	    -26.24742567	    -10.35337851	     23.21955393	      6.15844988	      9.40648736	     -5.30491505
      3.87000000	     -8.39695207	     -9.23199737	      6.83934075	     -2.63638375	     -0.02695246	      0.51634096	     21.95184753	      9.74173754	     -6.15299425	    -21.49001848	     -1.12998030	     -5.60673933	      4.81183211	     20.31383795	     -9.87735998	      7.15304426	    -65.16132602	    -25.52823630	    -10.91296337	     23.24441370	      6.05308292	      9.13968353	     -5.04917775
      3.87500000	     -8.32532229	     -8.93118351	      6.77453081	     -2.63024539	     -0.02581244	      0.51707607	     21.23314425	      9.62674906	     -5.86462164	    -21.21315314	     -0.89208199	     -5.63134751	      4.67494260	     21.02228180	     -9.37411929	      7.15958020	    -65.52981061	    -24.72609281	    -11.33772023	     22.95511914	      5.89606761	      8.78778042	     -4.62405993
      3.88000000	     -8.31324560	     -8.68118644	      6.79347369	     -2.62413213	     -0.02472429	      0.51769998	     20.54372071	      9.51941715	     -5.60919261	    -20.84139749	     -0.67841177	     -5.64116780	      4.63215214	     21.81936753	     -8.88158257	      7.27241028	    -65.79276379	    -23.98537105	    -11.70005343	     22.99729723	      5.83207530	      8.46711213	     -4.37507688
      3.88500000	     -8.30918477	     -8.29318840	      6.67863967	     -2.61809639	     -0.02356945	      0.51845636	     19.87676198	      9.29800024	     -5.31638396	    -20.53623114	     -0.43458740	     -5.60033187	      4.59039186	     22.52918600	     -8.29433548	      7.20283142	    -65.92387549	    -23.04360946	    -11.76399898	     22.99389206	      5.72775359	      8.02902075	     -3.93125731
      3.89000000	     -8.31874010	     -7.95693231	      6.53430101	     -2.61200324	     -0.02240170	      0.51920683	     19.18001253	      9.13026392	     -4.96146312	    -20.14136975	     -0.20437433	     -5.44520782	      4.52480359	     23.23511042	     -7.77605191	      7.11852998	    -65.96706503	    -22.01445260	    -11.61750084	     22.93840458	      5.65480723	      7.64654242	     -3.45595602
      3.89500000	     -8.38232732	     -7.59155563	      6.51312496	     -2.60597878	     -0.02123689	      0.51978266	     18.52819796	      8.87627677	     -4.70320763	    -19.70220344	     -0.05919934	     -5.40388591	      4.48668941	     24.00410532	     -7.15696992	      7.12871509	    -65.88024383	    -21.25383442	    -11.71963409	     22.99540403	      5.66032317	      7.21321742	     -3.18627244
      3.90000000	     -8.43302901	     -7.16504367	      6.23918779	     -2.59998348	     -0.02007129	      0.52063390	     17.89221050	      8.61992869	     -4.34816519	    -19.33978095	      0.15935097	     -5.18775276	      4.49889853	     24.65751216	     -6.60332027	      6.87514308	    -65.69008487	    -20.15652275	    -11.37690214	     23.05116772	      5.59826530	      6.76017149	     -2.56893095
      3.90500000	     -8.50157897	     -6.76333851	      6.06464176	     -2.59401041	     -0.01893889	      0.52135643	     17.25415330	      8.35367555	     -4.01852618	    -18.91783023	      0.33798901	     -5.04238096	      4.46744016	     25.34585520	     -6.03084674	      6.70807187	    -65.41639623	    -19.21623729	    -11.16284241	     23.02046708	      5.58297373	      6.31632469	     -2.12503821
      3.91000000	     -8.58245165	     -6.35242539	      5.85731975	     -2.58806477	     -0.01782328	      0.52208326	     16.63537530	      8.07288955	     -3.70420161	    -18.49488170	      0.48543618	     -4.87811061	      4.45875056	     26.01564593	     -5.46550834	      6.49766692	    -65.03795809	    -18.35953501	    -11.00383624	     22.99675898	      5.57567055	      5.87207559	     -1.65658725
      3.91500000	     -8.66875629	     -5.94220792	      5.63417847	     -2.58213768	     -0.01673008	      0.52277888	     16.03069247	      7.78335370	     -3.40893046	    -18.07566370	      0.59521958	     -4.71419135	      4.45616669	     26.66386503	     -4.90978689	      6.26555412	    -64.55892350	    -17.58480642	    -10.91915709	     22.97214225	      5.57878093	      5.43804559	     -1.19590308
      3.92000000	     -8.74052972	     -5.54992535	      5.36336432	     -2.57619623	     -0.01568668	      0.52352288	     15.39845573	      7.52205357	     -3.05780922	    -17.62448438	      0.73760592	     -4.52119216	      4.46507196	     27.27499102	     -4.41158627	      5.98116964	    -64.00715973	    -16.86123985	    -10.84331065	     22.89844350	      5.56918464	      5.03139432	     -0.68024036
      3.92500000	     -8.80655761	     -5.16629859	      5.07656097	     -2.57025825	     -0.01467590	      0.52424185	     14.76882219	      7.26268769	     -2.72912045	    -17.17675844	      0.84296774	     -4.33683109	      4.46975040	     27.85457846	     -3.93674041	      5.67622173	    -63.36506024	    -16.20584452	    -10.84434940	     22.79155499	      5.56006454	      4.64425180	     -0.17480141
      3.93000000	     -8.86006959	     -4.79891716	      4.76404299	     -2.56431032	     -0.01370750	      0.52495485	     14.12757036	      7.01790393	     -2.39635243	    -16.72082099	      0.93235236	     -4.14995616	      4.47675553	     28.39823491	     -3.50234799	      5.34476040	    -62.64412871	    -15.61077911	    -10.90047291	     22.65057441	      5.54376436	      4.28402483	      0.34270159
      3.93500000	     -8.89211353	     -4.44993452	      4.42459617	     -2.55835117	     -0.01277986	      0.52566456	     13.46105010	      6.79179145	     -2.04577919	    -16.24973853	      1.01066942	     -3.96285455	      4.48094060	     28.89744069	     -3.11471574	      4.98222320	    -61.84928039	    -15.06131285	    -10.99893095	     22.45300605	      5.51094079	      3.95480042	      0.86745427
